<mxfile host="65bd71144e">
    <diagram id="iHFKhYs2uYyAQLfd56x2" name="Page-1">
        <mxGraphModel dx="753" dy="485" grid="1" gridSize="10" guides="1" tooltips="1" connect="1" arrows="1" fold="1" page="1" pageScale="1" pageWidth="1169" pageHeight="827" math="0" shadow="0">
            <root>
                <mxCell id="0"/>
                <mxCell id="1" parent="0"/>
                <mxCell id="u2Rir4UqmTrbPWh9ForQ-1" value="Actor" style="shape=umlActor;verticalLabelPosition=bottom;verticalAlign=top;html=1;outlineConnect=0;" parent="1" vertex="1">
                    <mxGeometry x="90" y="310" width="30" height="60" as="geometry"/>
                </mxCell>
                <mxCell id="u2Rir4UqmTrbPWh9ForQ-2" value="" style="endArrow=classic;html=1;rounded=0;" parent="1" edge="1">
                    <mxGeometry width="50" height="50" relative="1" as="geometry">
                        <mxPoint x="530" y="280" as="sourcePoint"/>
                        <mxPoint x="570" y="200" as="targetPoint"/>
                    </mxGeometry>
                </mxCell>
                <mxCell id="u2Rir4UqmTrbPWh9ForQ-3" value="" style="endArrow=classic;html=1;rounded=0;" parent="1" edge="1">
                    <mxGeometry width="50" height="50" relative="1" as="geometry">
                        <mxPoint x="530" y="400" as="sourcePoint"/>
                        <mxPoint x="570" y="480" as="targetPoint"/>
                    </mxGeometry>
                </mxCell>
                <mxCell id="u2Rir4UqmTrbPWh9ForQ-4" value="se connecte" style="text;html=1;strokeColor=none;fillColor=none;align=center;verticalAlign=middle;whiteSpace=wrap;rounded=0;" parent="1" vertex="1">
                    <mxGeometry x="300" y="325" width="60" height="30" as="geometry"/>
                </mxCell>
                <mxCell id="u2Rir4UqmTrbPWh9ForQ-5" value="login" style="rounded=0;whiteSpace=wrap;html=1;fillColor=#f8cecc;strokeColor=#b85450;" parent="1" vertex="1">
                    <mxGeometry x="160" y="310" width="120" height="60" as="geometry"/>
                </mxCell>
                <mxCell id="u2Rir4UqmTrbPWh9ForQ-6" value="Page d'accueil" style="rounded=0;whiteSpace=wrap;html=1;fillColor=#f8cecc;strokeColor=#b85450;" parent="1" vertex="1">
                    <mxGeometry x="390" y="310" width="120" height="60" as="geometry"/>
                </mxCell>
                <mxCell id="u2Rir4UqmTrbPWh9ForQ-7" value="Livre" style="rounded=0;whiteSpace=wrap;html=1;fillColor=#f8cecc;strokeColor=#b85450;" parent="1" vertex="1">
                    <mxGeometry x="590" y="140" width="120" height="60" as="geometry"/>
                </mxCell>
                <mxCell id="u2Rir4UqmTrbPWh9ForQ-8" value="user" style="rounded=0;whiteSpace=wrap;html=1;fillColor=#f8cecc;strokeColor=#b85450;" parent="1" vertex="1">
                    <mxGeometry x="590" y="480" width="120" height="60" as="geometry"/>
                </mxCell>
                <mxCell id="u2Rir4UqmTrbPWh9ForQ-9" value="Recherche" style="text;html=1;strokeColor=none;fillColor=none;align=center;verticalAlign=middle;whiteSpace=wrap;rounded=0;" parent="1" vertex="1">
                    <mxGeometry x="480" y="220" width="60" height="30" as="geometry"/>
                </mxCell>
                <mxCell id="u2Rir4UqmTrbPWh9ForQ-10" value="consultation" style="rounded=0;whiteSpace=wrap;html=1;" parent="1" vertex="1">
                    <mxGeometry x="590" y="100" width="120" height="40" as="geometry"/>
                </mxCell>
                <mxCell id="u2Rir4UqmTrbPWh9ForQ-11" value="suppression" style="rounded=0;whiteSpace=wrap;html=1;" parent="1" vertex="1">
                    <mxGeometry x="760" y="80" width="120" height="40" as="geometry"/>
                </mxCell>
                <mxCell id="u2Rir4UqmTrbPWh9ForQ-12" value="Rendu" style="rounded=0;whiteSpace=wrap;html=1;" parent="1" vertex="1">
                    <mxGeometry x="760" y="180" width="120" height="40" as="geometry"/>
                </mxCell>
                <mxCell id="u2Rir4UqmTrbPWh9ForQ-13" value="emprunt" style="rounded=0;whiteSpace=wrap;html=1;" parent="1" vertex="1">
                    <mxGeometry x="760" y="130" width="120" height="40" as="geometry"/>
                </mxCell>
                <mxCell id="u2Rir4UqmTrbPWh9ForQ-15" value="ajout de livre" style="rounded=0;whiteSpace=wrap;html=1;" parent="1" vertex="1">
                    <mxGeometry x="592" y="310" width="120" height="60" as="geometry"/>
                </mxCell>
                <mxCell id="u2Rir4UqmTrbPWh9ForQ-16" value="Recherche" style="text;html=1;strokeColor=none;fillColor=none;align=center;verticalAlign=middle;whiteSpace=wrap;rounded=0;" parent="1" vertex="1">
                    <mxGeometry x="470" y="430" width="60" height="30" as="geometry"/>
                </mxCell>
                <mxCell id="u2Rir4UqmTrbPWh9ForQ-17" value="" style="endArrow=classic;html=1;rounded=0;" parent="1" edge="1">
                    <mxGeometry width="50" height="50" relative="1" as="geometry">
                        <mxPoint x="520" y="340" as="sourcePoint"/>
                        <mxPoint x="570" y="340" as="targetPoint"/>
                    </mxGeometry>
                </mxCell>
                <mxCell id="u2Rir4UqmTrbPWh9ForQ-18" value="" style="endArrow=classic;html=1;rounded=0;" parent="1" edge="1">
                    <mxGeometry width="50" height="50" relative="1" as="geometry">
                        <mxPoint x="712" y="340" as="sourcePoint"/>
                        <mxPoint x="762" y="340" as="targetPoint"/>
                    </mxGeometry>
                </mxCell>
                <mxCell id="u2Rir4UqmTrbPWh9ForQ-19" value="form d'enregistrement" style="rounded=0;whiteSpace=wrap;html=1;fillColor=#f8cecc;strokeColor=#b85450;" parent="1" vertex="1">
                    <mxGeometry x="784" y="310" width="126" height="60" as="geometry"/>
                </mxCell>
                <mxCell id="u2Rir4UqmTrbPWh9ForQ-20" value="consultation" style="rounded=0;whiteSpace=wrap;html=1;" parent="1" vertex="1">
                    <mxGeometry x="590" y="540" width="120" height="40" as="geometry"/>
                </mxCell>
                <mxCell id="u2Rir4UqmTrbPWh9ForQ-21" value="suppression" style="rounded=0;whiteSpace=wrap;html=1;" parent="1" vertex="1">
                    <mxGeometry x="760" y="510" width="120" height="40" as="geometry"/>
                </mxCell>
                <mxCell id="u2Rir4UqmTrbPWh9ForQ-22" value="&lt;br&gt;ajout&lt;br&gt;form d'enregistrement" style="rounded=0;whiteSpace=wrap;html=1;fillColor=#f8cecc;strokeColor=#b85450;" parent="1" vertex="1">
                    <mxGeometry x="760" y="560" width="126" height="60" as="geometry"/>
                </mxCell>
                <mxCell id="u2Rir4UqmTrbPWh9ForQ-24" value="" style="endArrow=classic;html=1;rounded=0;" parent="1" edge="1">
                    <mxGeometry width="50" height="50" relative="1" as="geometry">
                        <mxPoint x="720" y="160" as="sourcePoint"/>
                        <mxPoint x="750" y="100" as="targetPoint"/>
                    </mxGeometry>
                </mxCell>
                <mxCell id="u2Rir4UqmTrbPWh9ForQ-26" value="" style="endArrow=classic;html=1;rounded=0;" parent="1" edge="1">
                    <mxGeometry width="50" height="50" relative="1" as="geometry">
                        <mxPoint x="720" y="160" as="sourcePoint"/>
                        <mxPoint x="750" y="150" as="targetPoint"/>
                    </mxGeometry>
                </mxCell>
                <mxCell id="u2Rir4UqmTrbPWh9ForQ-27" value="" style="endArrow=classic;html=1;rounded=0;" parent="1" edge="1">
                    <mxGeometry width="50" height="50" relative="1" as="geometry">
                        <mxPoint x="720" y="160" as="sourcePoint"/>
                        <mxPoint x="750" y="200" as="targetPoint"/>
                    </mxGeometry>
                </mxCell>
                <mxCell id="u2Rir4UqmTrbPWh9ForQ-28" value="" style="endArrow=classic;html=1;rounded=0;" parent="1" edge="1">
                    <mxGeometry width="50" height="50" relative="1" as="geometry">
                        <mxPoint x="710" y="510" as="sourcePoint"/>
                        <mxPoint x="750" y="590" as="targetPoint"/>
                    </mxGeometry>
                </mxCell>
                <mxCell id="u2Rir4UqmTrbPWh9ForQ-29" value="" style="endArrow=classic;html=1;rounded=0;exitX=1;exitY=0.5;exitDx=0;exitDy=0;" parent="1" source="u2Rir4UqmTrbPWh9ForQ-8" edge="1">
                    <mxGeometry width="50" height="50" relative="1" as="geometry">
                        <mxPoint x="730" y="170" as="sourcePoint"/>
                        <mxPoint x="750" y="530" as="targetPoint"/>
                    </mxGeometry>
                </mxCell>
            </root>
        </mxGraphModel>
    </diagram>
</mxfile>